<svg xmlns="http://www.w3.org/2000/svg" width="899.933" height="193.78" viewBox="0 0 899.933 193.78">
  <g id="Group_54" data-name="Group 54" transform="translate(-0.667 -0.62)">
    <path id="Path_354" data-name="Path 354" d="M655.24,145.38H675.2c15.687,0,26.26,10.08,26.26,24.513S690.887,194.4,675.2,194.4H655.24Zm19.68,44.54c13.027,0,21.427-8.267,21.427-20s-8.4-20.033-21.427-20.033h-14.5v40.06Z" fill="#fff"/>
    <path id="Path_355" data-name="Path 355" d="M762.173,181.307H734.84L728.96,194.4h-5.393L746,145.38h5.113L773.52,194.4h-5.46Zm-1.886-4.207L748.52,150.773,736.753,177.1Z" fill="#fff"/>
    <path id="Path_356" data-name="Path 356" d="M809.513,149.86H792.287v-4.48h39.64v4.48H814.7V194.4h-5.187Z" fill="#fff"/>
    <path id="Path_357" data-name="Path 357" d="M889.28,181.307H861.947l-5.88,13.093h-5.4l22.413-49.02h5.107L900.6,194.4h-5.46Zm-1.887-4.207-11.766-26.327L863.86,177.1Z" fill="#fff"/>
    <path id="Path_358" data-name="Path 358" d="M534.847,94.713q-10.7-14-19.08-37.033c-.3-1.293-.894-1.947-1.794-1.947a2.082,2.082,0,0,0-.9.153q-5.332,1.4-11.046,2.4a10.171,10.171,0,0,1-2.287.62l-.667.4a2.085,2.085,0,0,1-.553.22,2.454,2.454,0,0,0,.053.62,2.45,2.45,0,0,1,.387,1.073l.087-.1a145.236,145.236,0,0,0,24.086,37.26q14.214,15.714,30.94,22.62a3.947,3.947,0,0,0,3.367-.593,2.811,2.811,0,0,0,1.42-2.1A113.791,113.791,0,0,1,534.847,94.713Z" fill="#fff"/>
    <path id="Path_359" data-name="Path 359" d="M.707,3.127H40.793q10.567,0,17.533,2.853A21.03,21.03,0,0,1,68.7,14.4q3.407,5.56,3.407,13.78c.053.62.08,1.513.08,2.667q0,11.9-7.087,19.18A39.04,39.04,0,0,1,47.72,60.333a72.45,72.45,0,0,1-20.473,3.013A41.741,41.741,0,0,1,15.74,62.013v51.334a29.11,29.11,0,0,0-7.073-.927,41.806,41.806,0,0,0-8,.94ZM15.74,55.733H30.773a24.28,24.28,0,0,0,13.54-3.72,24.575,24.575,0,0,0,8.733-9.68A27.333,27.333,0,0,0,56.06,29.927a21.376,21.376,0,0,0-5.247-14.6q-5.247-5.987-15.187-6a18.437,18.437,0,0,0-2.353.08H15.74Z" fill="#fff"/>
    <path id="Path_360" data-name="Path 360" d="M92.153,113.36V3.127a23.754,23.754,0,0,0,7.333.933c3.026,0,5.166-.307,6.42-.933v101.46a93.159,93.159,0,0,0,11.666.553q7.44,0,16.794-.553t15.386-1.254a12.083,12.083,0,0,0-.546,3.68,23.894,23.894,0,0,0,.193,2.507c.127,1.147.22,2,.273,2.507a12.968,12.968,0,0,1,.08,1.333Z" fill="#fff"/>
    <path id="Path_361" data-name="Path 361" d="M159.793,113.36,209.9,1.873h3.76L262.513,113.36q-.786,0-2.666-.12l-4.38-.24q-2.435-.161-4-.16a35.945,35.945,0,0,0-6.5.553L227.433,69.547H188.607L172.32,113.393a13.429,13.429,0,0,0-4.073-.553c-.667,0-1.654.053-2.934.16l-3.333.273C161.047,113.32,160.313,113.36,159.793,113.36ZM192.36,62.027h32.573l-16.266-38.86Z" fill="#fff"/>
    <path id="Path_362" data-name="Path 362" d="M280.047,113.36V3.127h7.52L364,87.053V3.127a13.933,13.933,0,0,0,10,0V113.36h-6.267l-77.66-86.433V113.36a10.1,10.1,0,0,0-4.546-.94A17.294,17.294,0,0,0,280.047,113.36Z" fill="#fff"/>
    <path id="Path_363" data-name="Path 363" d="M395.293,59.493A57.29,57.29,0,0,1,399.44,37.96a54,54,0,0,1,11.827-18.08A55.335,55.335,0,0,1,429.933,7.627a63.372,63.372,0,0,1,24.227-4.5q25.52,0,37.58,7.513L488,23.167h-1.247a55.013,55.013,0,0,0-10.34-7.793,45.534,45.534,0,0,0-10.726-4.42,43,43,0,0,0-11.194-1.487,40.747,40.747,0,0,0-21.16,5.833A42.653,42.653,0,0,0,417.56,32.093q-5.953,10.967-5.947,25.52v1.88q.307,13.333,3.914,22.667a42.665,42.665,0,0,0,9.786,15.42,38.361,38.361,0,0,0,13.78,8.847,45.875,45.875,0,0,0,15.894,2.78,54.455,54.455,0,0,0,18.473-3.247,51.21,51.21,0,0,0,15.813-8.887l-1.253,10a75.455,75.455,0,0,1-11.627,5.6,68.374,68.374,0,0,1-24,4.5,59.765,59.765,0,0,1-21.766-4,54.959,54.959,0,0,1-18.434-11.74,53.824,53.824,0,0,1-12.453-18.32,60.827,60.827,0,0,1-4.447-23.62Z" fill="#fff"/>
    <path id="Path_364" data-name="Path 364" d="M557.42,4.06a26.332,26.332,0,0,1-6.107-.933L514.987,39.453q-10.134,10.127-15.2,14.18c-.474.787-.914,1.593-1.334,2.38-.346.667-.666,1.267-1.006,1.907.42.4.846.8,1.273,1.213V58.24a4.289,4.289,0,0,1,1.02-.153,5,5,0,0,1,3.093,1.287c.307.253.667.56,1.014.907a44.877,44.877,0,0,1,3.253-3.4,32.352,32.352,0,0,1,3.153-2.393c.4-.253.794-.52,1.194-.78l.5-.48a9.665,9.665,0,0,1,1.846-1.287L562.607,3.127a16.431,16.431,0,0,1-5.187.933Z" fill="#fff"/>
    <path id="Path_365" data-name="Path 365" d="M606.433,113.36V10.64q-2.82,0-9.826.627t-13.78,1.527q-6.767.873-11.494,1.607a17.374,17.374,0,0,0,0-11.273h83.934a17.374,17.374,0,0,0,0,11.273q-3.287-.553-12.254-1.767t-14.56-1.6q-5.6-.387-8.26-.393V113.36a20.25,20.25,0,0,0-6.42-.94,30.19,30.19,0,0,0-7.34.94Z" fill="#fff"/>
    <path id="Path_366" data-name="Path 366" d="M664.053,58.24a58.106,58.106,0,0,1,3.954-20.9,57.444,57.444,0,0,1,11.586-18.6,54.992,54.992,0,0,1,19.3-13.187A67.4,67.4,0,0,1,725.433.62q17.3.467,29.087,5.673T772.84,19.72a52.412,52.412,0,0,1,9.333,17.62,83.686,83.686,0,0,1,3.334,19.647V59.18a55.327,55.327,0,0,1-4.814,23.333,53.325,53.325,0,0,1-13.36,18.04A60.539,60.539,0,0,1,748,112.027a64.762,64.762,0,0,1-22.433,3.913,12.108,12.108,0,0,1-1.214-.04c-.393-.04-.873-.04-1.446-.04a68.2,68.2,0,0,1-20.314-3.167,59.123,59.123,0,0,1-19.026-10.06,50.04,50.04,0,0,1-14.174-18Q664.053,73.507,664.053,58.24Zm16.287,0q0,23.96,12.487,37.66t32.606,13.7a39.875,39.875,0,0,0,16.52-3.407,38.9,38.9,0,0,0,13.467-10.14,51.656,51.656,0,0,0,9.393-16.28,80.3,80.3,0,0,0,4.46-21.533q.081-.94.08-2.74a54.834,54.834,0,0,0-3.333-19.18,47.2,47.2,0,0,0-9.333-15.58,41.7,41.7,0,0,0-14.334-10.22,44.952,44.952,0,0,0-18.2-3.64q-11.12,0-19.18,4.74A39.593,39.593,0,0,0,691.86,23.947a62.683,62.683,0,0,0-7.727,16.387A102.6,102.6,0,0,0,680.34,58.24Z" fill="#fff"/>
    <path id="Path_367" data-name="Path 367" d="M805.607,113.36V3.127h7.513l76.413,83.927V3.127a13.913,13.913,0,0,0,10,0V113.36h-6.266l-77.64-86.433V113.36a10.061,10.061,0,0,0-4.54-.94,17.206,17.206,0,0,0-5.48.94Z" fill="#fff"/>
  </g>
</svg>
