<svg width="104" height="98" viewBox="0 0 104 98" fill="none" xmlns="http://www.w3.org/2000/svg">
<rect width="104" height="98" fill="#01B93F"/>
<path d="M78 49.5C78 63.5833 66.5833 75 52.5 75C38.4167 75 27 63.5833 27 49.5C27 35.4167 38.4167 24 52.5 24C66.5833 24 78 35.4167 78 49.5Z" fill="white"/>
<path d="M38.0236 59.7469C38.3148 58.8435 38.6421 57.7956 38.9864 56.7541C41.5031 49.1788 44.0225 41.6034 46.5448 34.0281C46.6016 33.8361 46.6727 33.6485 46.7573 33.467C47.0507 32.874 47.0485 31.9791 47.9965 32.0004C48.8276 32.0216 48.9084 32.8187 49.1698 33.3841C51.4887 38.4131 53.7737 43.4569 56.133 48.4753C56.6431 49.5571 56.4795 50.1756 55.474 50.8133C50.275 54.0738 45.1101 57.3854 39.9174 60.6544C39.4923 60.9287 38.9886 61.3304 38.3998 60.9626C38.0066 60.7118 37.9598 60.3143 38.0236 59.7469Z" fill="#3EEC93"/>
<path d="M43.6646 61.9954C43.1417 62.0188 42.6189 61.972 42.4191 61.4003C42.1853 60.7265 42.6975 60.3927 43.163 60.0994C46.7445 57.8379 50.4769 55.7825 53.8756 53.2723C56.3731 51.4273 58.5517 50.7216 61.4318 52.3265C63.4171 53.438 65.6574 54.0927 67.7786 54.9599C68.2887 55.1725 68.8648 55.385 68.8414 56.0588C68.818 56.7327 68.2292 56.9218 67.6872 57.0345C59.8271 58.6866 51.9683 60.3247 44.111 61.9486C43.9631 61.9717 43.8141 61.9872 43.6646 61.9954Z" fill="#01B93F"/>
<path d="M67.4663 53.5086C66.5885 53.1579 65.532 52.7115 64.4608 52.3119C62.7838 51.6743 61.1918 50.824 59.4169 50.4542C58.537 50.2671 57.9779 49.604 57.6102 48.79C55.8503 44.9371 54.0932 41.0821 52.3389 37.225C52.256 37.0422 52.1901 36.853 52.1264 36.6681C51.9139 36.1219 51.5079 35.5437 52.2709 35.1059C52.9299 34.7254 53.3996 35.0952 53.8289 35.5671C56.4816 38.4791 59.135 41.3896 61.789 44.2987C63.9995 46.7345 66.1952 49.1874 68.3994 51.6211C68.782 52.0462 69.1241 52.4884 68.8436 53.0857C68.6034 53.5787 68.1379 53.583 67.4663 53.5086Z" fill="#1A7D40"/>
</svg>
